<svg aria-hidden="true" style="position: absolute; width: 0; height: 0; overflow: hidden;" version="1.1" xmlns="http://www.w3.org/2000/svg" xmlns:xlink="http://www.w3.org/1999/xlink">
<defs>
<symbol id="houses" viewBox="0 0 31 32">
<path stroke-linejoin="round" stroke-linecap="round" stroke-miterlimit="4" stroke-width="1.7811" d="M25.973 26.057h-13.959c-1.038 0-1.879-0.955-1.879-2.133v-11.352l8.859-6.629 8.859 6.629v11.352c0 1.178-0.841 2.133-1.879 2.133z"></path>
<path stroke-linejoin="round" stroke-linecap="round" stroke-miterlimit="4" stroke-width="1.7811" d="M18.859 26.057h-13.96c-1.038 0-1.879-0.955-1.879-2.133v-11.352l8.859-6.629 8.859 6.629v11.352c0 1.178-0.841 2.133-1.879 2.133z"></path>
<path d="M11.876 22.277c-1.271 0-2.455-0.714-3.169-1.909-0.187-0.314-0.115-0.74 0.161-0.952s0.652-0.131 0.839 0.183c0.489 0.819 1.299 1.307 2.169 1.307s1.68-0.489 2.169-1.307c0.187-0.313 0.563-0.395 0.839-0.183s0.348 0.639 0.161 0.952c-0.714 1.195-1.898 1.909-3.169 1.909z"></path>
<path d="M15.682 16.401c0.486 0 0.879-0.447 0.879-0.998s-0.394-0.999-0.88-0.999c-0.486 0-0.879 0.447-0.879 0.999s0.394 0.998 0.879 0.998z"></path>
<path d="M8.963 15.403c0 0.551-0.394 0.998-0.88 0.998s-0.879-0.447-0.879-0.998c0-0.551 0.394-0.999 0.879-0.999s0.88 0.447 0.88 0.999z"></path>
<path d="M15.614 14.884c-0.253 0-0.457 0.232-0.457 0.519s0.205 0.519 0.457 0.519h0.135c0.253 0 0.457-0.232 0.457-0.519s-0.205-0.519-0.457-0.519h-0.135z"></path>
<path d="M8.015 14.884c-0.253 0-0.457 0.232-0.457 0.519s0.205 0.519 0.457 0.519h0.135c0.253 0 0.457-0.232 0.457-0.519s-0.205-0.519-0.457-0.519h-0.135z"></path>
</symbol>
</defs>
</svg>
